<?xml version="1.0" encoding="UTF-8"?>
<svg id="_レイヤー_1" data-name="レイヤー_1" xmlns="http://www.w3.org/2000/svg" version="1.1" viewBox="0 0 220.7 124.3">
  <!-- Generator: Adobe Illustrator 29.8.3, SVG Export Plug-In . SVG Version: 2.1.1 Build 3)  -->
  <defs>
    <style>
      .st0 {
        fill: #274c28;
      }

      .st1 {
        fill: #fff;
      }

      .st2 {
        fill: #ccc;
      }

      .st3 {
        fill: #bb2a28;
      }
    </style>
  </defs>
  <rect class="st2" width="220.7" height="124.3"/>
  <g>
    <path class="st0" d="M47.1,25.6h0c1.5,1.4,1.3,3.8-.4,4.9l-5.4,3.4c-.8.5-1.4,1.5-1.4,2.5l-.8,16.1c0,1.7-1.5,3-3.2,2.9h-.4c-1.8,0-3.1-1.6-3-3.3l.4-5.6c.2-2.7-3-4.3-5.1-2.6l-1.8,1.5c-1.5,1.3-3.8.8-4.7-.9h0c-.8-1.5-.3-3.3,1.1-4.1,2-1.2,5.2-3.5,10.3-6.9,3.6-2.3,7-5.6,10.5-8.2s2.8-.7,3.9.2Z"/>
    <path class="st0" d="M63,13.7l4.4,1.6c.5.2.7.8.4,1.2h0c-.4.6,0,1.3.7,1.2l7.6-.9c2.5-.3,4.4.2,5.5,1.5.7.8.8,1.9.6,3.4-.4,1.8-1.1,3.5-2.1,5.1l-3.5,5.3c-.3.4-.1.9.3,1.1l2.6,1.3c.4.2.5.7.3,1.1l-2.4,4c-.2.4-.7.5-1.1.3l-2.8-1.7c-.3-.2-.8-.1-1,.2l-4.8,6.5c-.2.3-.6.4-.9.2l-4.5-2c-.4-.2-.6-.8-.3-1.2l4.7-6.5c.3-.4.1-.9-.3-1.1l-5.3-2.7c-.4-.2-.6-.8-.3-1.2l2.7-3.5c.2-.3.6-.4,1-.2l5.2,2.7c.4.2.8,0,1-.3l2.8-4.9c.3-.6-.1-1.2-.8-1.2l-9.8,1.2c-.2,0-.4.2-.6.4l-5.5,8.9c-.2.4-.7.5-1,.3l-4.2-2.3c-.4-.2-.5-.7-.3-1.1l10.7-16.2c.2-.3.6-.4.9-.3Z"/>
    <path class="st1" d="M91,5.2c1.7.1,3,1.7,2.8,3.4-.4,3.5-.7,6.3-.7,8.4,0,1.6,0,4.1,0,7.2s-1.4,3.1-3.1,3.1h0c-1.6,0-2.8-1.3-2.9-2.8-.4-5.8-.1-11.4.7-16.7s1.6-2.7,3.2-2.5h0ZM106.8,4.8h.7c1.7.1,3,1.6,2.8,3.3-.7,7.5-1.4,13.1-2,16.9-.4,2.3-1,5.3-2,9s-2,2.6-3.6,2.2h-.6c-1.6-.5-2.7-2.1-2.3-3.8.7-2.9,1.3-5.6,1.8-8.3.7-3.7,1.3-9.2,1.9-16.6s1.5-2.9,3.2-2.8Z"/>
    <path class="st3" d="M139.5,31.3h0c-2-1-2.6-3.6-1.1-5.2h0c2-2.3.1-5.9-2.9-5.5s-1.4.2-2,.3c-2.4.4-5.6,1-9.8,1.9s-3.8-.9-4-2.9h0c-.2-1.7,1-3.3,2.7-3.6l9.6-1.6c5.3-.8,9.4-1.2,12.1-1,2.9.3,4.9,1.5,5.9,3.7.8,1.7.6,4-.6,6.9s-.4.8-.8,1.1l-5.5,5.3c-1,.9-2.4,1.2-3.6.6ZM136.3,27.3l-4.4,14.3c-.5,1.8-2.5,2.8-4.3,2.1l-.4-.2c-1.7-.6-2.6-2.4-2-4.2l4.7-14.2c.5-1.6,2.2-2.5,3.8-2.2h0c1.9.4,3,2.4,2.5,4.2Z"/>
    <path class="st3" d="M163.7,26.2l6.2,3.2c1.7.9,2.3,3.1,1.2,4.7l-.3.4c-1,1.5-2.9,1.9-4.4,1l-5.9-3.6c-1.6-1-2.1-3.2-.9-4.7h0c1-1.4,2.7-1.8,4.1-1ZM186.7,38.8h0c.8,1.5.3,3.4-1.1,4.3l-19.6,12.6c-1.4.9-3.4.6-4.4-.8l-.4-.6c-1.1-1.5-.7-3.7.9-4.7l20-12c1.6-.9,3.6-.4,4.5,1.2Z"/>
  </g>
  <g>
    <path class="st0" d="M76.8,74.3c-2.4,0-4.2-2.2-3.7-4.6s.1-.5.2-.8c.7-3.2.7-5.4,0-6.8-1.5-2.4-3.8-2.6-7-.6-2.8,1.9-5,5.4-6.5,10.7-1.3,4.7-2.1,8.9-2.2,12.7-.2,9.6,2,14.7,6.5,15.5,2.8.4,5.4-.7,7.9-3.1s2.1-2.5,3.6-4.9,4.3-2.4,5.9-.6h0c1.2,1.2,1.4,3.1.5,4.5-1.9,3.2-3.7,5.7-5.4,7.4-5.8,5.8-12.5,7.7-20,5.6-3.8-1.1-6.8-3.7-9-7.6s-3.5-8.5-3.7-13.8c-.4-12,3.3-22.2,11-30.7,4.3-4.7,10-6.7,17.2-5.9,5.2.6,9,2.8,11.2,6.8,1.5,2.6,2.2,5.7,2,9.3,0,1-.1,2.2-.4,3.6s-1.9,3.1-3.7,3.1h-4.4Z"/>
    <path class="st1" d="M97.7,52c3.5,0,6.3,3.1,6,6.6-.7,8.7-1.2,16.1-1.5,22.5-.2,5.8-.2,13.5-.3,23.2s-2.7,6.1-6,6.1h-.5c-3.5,0-6.4-2.8-6.3-6.3.2-8.5.4-16.1.7-22.5.3-5.7.8-13.7,1.6-23.9.2-3.3,3-5.8,6.3-5.7h0Z"/>
    <path class="st3" d="M151.4,58.4h0c0,2.7-2.2,4.9-4.9,5l-4.3.2c-2.7.1-4.8,2.3-4.9,5l-1.1,37.9c0,2.7-2.3,4.9-5,5h-1.9c-2.9.1-5.3-2.3-5.2-5.2l1.1-35.2c0-3.3-2.9-5.8-6.1-5.2l-2,.4c-3.2.6-6.2-1.9-6.1-5.2v-2.3c.2-2.7,2.4-4.8,5.1-4.9l30.1-.6c2.9,0,5.3,2.3,5.2,5.2Z"/>
  </g>
</svg>