<?xml version="1.0" encoding="UTF-8"?>
<svg id="_レイヤー_2" data-name="レイヤー 2" xmlns="http://www.w3.org/2000/svg" viewBox="0 0 220.66 124.3">
  <defs>
    <style>
      .cls-1 {
        fill: #274c28;
      }

      .cls-2 {
        fill: #fff;
      }

      .cls-3 {
        fill: #ccc;
      }

      .cls-4 {
        fill: #bb2a28;
      }
    </style>
  </defs>
  <g id="_レイヤー_1-2" data-name="レイヤー 1">
    <rect class="cls-3" width="220.66" height="124.3"/>
    <g>
      <path class="cls-1" d="M47.06,25.62h0c1.5,1.37,1.29,3.79-.42,4.88l-5.38,3.44c-.84.54-1.37,1.45-1.42,2.46l-.77,16.07c-.08,1.67-1.48,2.98-3.15,2.94h-.36c-1.76-.05-3.14-1.55-3.02-3.31l.39-5.56c.19-2.72-2.97-4.33-5.06-2.59l-1.8,1.51c-1.5,1.25-3.76.82-4.69-.9l-.02-.04c-.78-1.44-.31-3.23,1.08-4.09,1.98-1.23,5.15-3.52,10.28-6.86,3.61-2.34,7-5.65,10.47-8.2,1.17-.86,2.8-.74,3.87.24Z"/>
      <path class="cls-1" d="M62.98,13.7l4.38,1.57c.48.17.67.75.38,1.17h0c-.38.55.07,1.29.73,1.21l7.57-.92c2.53-.28,4.36.24,5.48,1.55.65.75.84,1.88.56,3.38-.38,1.78-1.08,3.47-2.11,5.06l-3.47,5.33c-.25.39-.11.9.29,1.11l2.58,1.33c.4.21.54.71.31,1.09l-2.4,3.96c-.22.37-.71.49-1.07.26l-2.8-1.74c-.34-.21-.79-.13-1.03.2l-4.83,6.52c-.22.29-.61.4-.94.25l-4.47-2.02c-.45-.2-.6-.76-.31-1.16l4.68-6.51c.28-.39.15-.93-.28-1.15l-5.25-2.68c-.43-.22-.56-.78-.26-1.16l2.69-3.52c.23-.3.64-.39.98-.22l5.23,2.73c.37.19.83.06,1.03-.3l2.8-4.9c.32-.55-.13-1.23-.77-1.16l-9.77,1.18c-.24.03-.44.16-.57.36l-5.46,8.89c-.22.35-.67.47-1.04.27l-4.24-2.33c-.4-.22-.52-.73-.27-1.11l10.73-16.23c.2-.3.57-.42.91-.3Z"/>
      <path class="cls-2" d="M90.99,5.23c1.71.12,2.98,1.65,2.77,3.36-.41,3.48-.66,6.28-.73,8.4-.07,1.65-.06,4.05.03,7.23.05,1.72-1.36,3.14-3.08,3.1h0c-1.57-.04-2.84-1.28-2.94-2.84-.37-5.83-.13-11.4.71-16.7.25-1.55,1.63-2.66,3.2-2.54h.04ZM106.82,4.8l.69.04c1.7.11,2.97,1.61,2.81,3.3-.73,7.52-1.38,13.14-1.96,16.86-.38,2.27-1.03,5.26-1.95,8.98-.39,1.58-1.97,2.56-3.56,2.21l-.59-.13c-1.65-.36-2.68-2.01-2.28-3.65.7-2.86,1.29-5.61,1.78-8.26.66-3.65,1.29-9.18,1.88-16.59.13-1.64,1.55-2.88,3.19-2.77Z"/>
      <path class="cls-4" d="M139.49,31.32l-.08-.04c-2.03-.92-2.58-3.54-1.09-5.2l.02-.02c2.04-2.28.14-5.88-2.89-5.47-.69.09-1.37.19-2.03.28-2.36.37-5.61,1-9.76,1.89-1.92.41-3.78-.93-3.98-2.88h0c-.18-1.73,1.02-3.31,2.74-3.59l9.6-1.6c5.34-.84,9.37-1.17,12.09-.98,2.9.28,4.87,1.5,5.91,3.66.79,1.66.6,3.97-.57,6.94-.17.43-.45.82-.78,1.15l-5.53,5.26c-.97.93-2.41,1.17-3.64.61ZM136.26,27.31l-4.37,14.32c-.55,1.8-2.48,2.77-4.25,2.15l-.45-.16c-1.7-.6-2.6-2.45-2.03-4.15l4.74-14.17c.53-1.6,2.18-2.53,3.83-2.18l.08.02c1.88.41,3.02,2.34,2.45,4.18Z"/>
      <path class="cls-4" d="M163.75,26.17l6.16,3.23c1.7.89,2.26,3.05,1.22,4.66l-.27.42c-.96,1.47-2.9,1.92-4.41,1.01l-5.93-3.58c-1.64-.99-2.08-3.16-.95-4.71l.05-.07c.95-1.3,2.71-1.71,4.14-.96ZM186.66,38.8h0c.82,1.5.35,3.38-1.09,4.31l-19.63,12.6c-1.44.93-3.36.57-4.38-.81l-.42-.57c-1.14-1.54-.7-3.74.94-4.72l20.05-12.03c1.58-.95,3.64-.39,4.53,1.22Z"/>
    </g>
    <g>
      <path class="cls-1" d="M76.85,74.33c-2.42,0-4.22-2.23-3.71-4.59.05-.25.11-.5.16-.75.75-3.19.75-5.44,0-6.75-1.5-2.43-3.85-2.62-7.03-.56-2.81,1.88-4.97,5.44-6.47,10.69-1.31,4.69-2.07,8.91-2.25,12.66-.19,9.56,1.97,14.72,6.47,15.47,2.81.38,5.44-.65,7.88-3.09.87-.87,2.08-2.5,3.62-4.87,1.34-2.07,4.25-2.35,5.95-.56l.03.03c1.16,1.22,1.39,3.06.54,4.51-1.91,3.25-3.69,5.7-5.35,7.37-5.81,5.81-12.47,7.69-19.97,5.62-3.75-1.12-6.75-3.66-9-7.59s-3.47-8.53-3.66-13.78c-.38-12,3.28-22.22,10.97-30.66,4.31-4.68,10.03-6.65,17.16-5.91,5.25.56,9,2.81,11.25,6.75,1.5,2.63,2.15,5.72,1.97,9.28,0,1.01-.14,2.22-.4,3.63-.34,1.8-1.9,3.12-3.74,3.12h-4.4Z"/>
      <path class="cls-2" d="M97.72,51.96c3.53.08,6.27,3.11,5.99,6.63-.67,8.65-1.15,16.14-1.45,22.48-.16,5.79-.25,13.53-.27,23.24,0,3.34-2.68,6.07-6.02,6.14h-.52c-3.5.09-6.36-2.78-6.29-6.28.18-8.54.42-16.05.72-22.54.32-5.71.83-13.69,1.55-23.95.23-3.28,2.99-5.81,6.28-5.73h0Z"/>
      <path class="cls-4" d="M151.43,58.45h0c-.07,2.68-2.21,4.85-4.9,4.96l-4.26.17c-2.68.11-4.82,2.27-4.9,4.95l-1.12,37.93c-.08,2.71-2.27,4.89-4.99,4.95l-1.87.04c-2.93.07-5.31-2.33-5.22-5.26l1.05-35.21c.1-3.27-2.86-5.78-6.07-5.17l-2.03.39c-3.23.62-6.2-1.94-6.07-5.23l.09-2.26c.11-2.69,2.3-4.84,4.99-4.89l30.06-.63c2.92-.06,5.29,2.33,5.21,5.25Z"/>
    </g>
  </g>
</svg>